<?xml version="1.0" standalone="no"?>
<!DOCTYPE svg PUBLIC "-//W3C//DTD SVG 20010904//EN"
 "http://www.w3.org/TR/2001/REC-SVG-20010904/DTD/svg10.dtd">
<svg version="1.0" xmlns="http://www.w3.org/2000/svg"
 width="600.000000pt" height="600.000000pt" viewBox="0 0 600.000000 600.000000"
 preserveAspectRatio="xMidYMid meet">
<metadata>
Created by potrace 1.14, written by Peter Selinger 2001-2017
</metadata>
<g transform="translate(0.000000,600.000000) scale(0.100000,-0.100000)"
fill="#000000" stroke="none">
<path d="M3629 5716 c-2 -2 -35 -7 -74 -10 -73 -6 -79 -7 -215 -32 -96 -17
-99 -18 -267 -73 -470 -155 -896 -479 -1185 -901 -62 -91 -146 -236 -180 -310
-53 -115 -69 -154 -97 -235 -61 -179 -103 -360 -116 -505 -4 -36 -9 -76 -11
-90 -6 -34 -5 -291 1 -360 17 -202 77 -479 135 -625 4 -11 23 -58 41 -104 52
-134 182 -381 200 -381 10 0 43 20 414 254 138 87 256 164 263 171 11 10 8 21
-16 61 -104 178 -186 425 -208 629 -7 68 -7 263 0 315 54 400 223 719 527 996
113 103 353 238 516 289 608 193 1278 -25 1686 -547 28 -37 55 -67 58 -68 16
-1 689 460 689 472 0 14 -33 60 -126 173 -234 285 -490 491 -801 644 -54 26
-125 58 -158 70 -33 13 -69 27 -80 31 -102 41 -336 100 -455 114 -25 3 -61 9
-80 12 -40 7 -455 16 -461 10z"/>
<path d="M4185 3644 c-11 -8 -93 -61 -182 -117 -90 -56 -182 -114 -205 -129
-24 -15 -65 -41 -93 -58 -27 -17 -75 -47 -105 -66 -30 -19 -61 -39 -69 -43
-11 -7 -1 -35 51 -142 73 -150 118 -275 150 -424 31 -142 31 -425 0 -568 -179
-818 -897 -1327 -1712 -1212 -214 30 -468 134 -660 272 -108 77 -266 230 -335
326 -27 37 -54 67 -61 67 -6 0 -80 -46 -165 -103 -85 -57 -230 -154 -324 -216
-93 -63 -174 -117 -179 -122 -9 -8 49 -96 133 -201 116 -143 317 -331 456
-428 28 -19 52 -38 53 -42 2 -4 9 -8 16 -8 7 0 21 -9 31 -20 10 -11 21 -20 26
-20 4 0 36 -18 71 -39 53 -32 206 -109 303 -151 102 -45 364 -119 495 -140 41
-6 86 -14 100 -17 14 -3 129 -7 255 -8 183 -3 255 0 352 15 315 47 589 143
856 301 67 40 124 75 127 79 3 3 26 20 51 38 279 189 560 519 731 857 85 168
175 421 203 570 42 224 49 297 49 495 0 198 -12 310 -52 500 -40 183 -134 433
-220 585 -19 33 -46 80 -60 105 -26 48 -51 80 -61 80 -3 0 -15 -7 -26 -16z"/>
</g>
</svg>
